<mxfile host="Electron" agent="Mozilla/5.0 (Macintosh; Intel Mac OS X 10_15_7) AppleWebKit/537.36 (KHTML, like Gecko) draw.io/26.0.4 Chrome/128.0.6613.186 Electron/32.2.5 Safari/537.36" version="26.0.4">
  <diagram name="Page-1" id="yDXGCuGoEaqL-VErvjSq">
    <mxGraphModel dx="1242" dy="832" grid="0" gridSize="10" guides="1" tooltips="1" connect="1" arrows="1" fold="1" page="1" pageScale="1" pageWidth="827" pageHeight="1169" math="0" shadow="0">
      <root>
        <mxCell id="0" />
        <mxCell id="1" parent="0" />
        <mxCell id="OauRLrOld_A3xyYv3yS7-1" value="BackEnd&lt;div&gt;(FastAPI)&lt;/div&gt;" style="ellipse;whiteSpace=wrap;html=1;" vertex="1" parent="1">
          <mxGeometry x="488" y="340" width="120" height="80" as="geometry" />
        </mxCell>
        <mxCell id="OauRLrOld_A3xyYv3yS7-2" value="FrontEnd&lt;div&gt;(NextJs)&lt;/div&gt;" style="ellipse;whiteSpace=wrap;html=1;" vertex="1" parent="1">
          <mxGeometry x="270" y="340" width="120" height="80" as="geometry" />
        </mxCell>
        <mxCell id="OauRLrOld_A3xyYv3yS7-3" value="User" style="ellipse;whiteSpace=wrap;html=1;" vertex="1" parent="1">
          <mxGeometry x="70" y="340" width="120" height="80" as="geometry" />
        </mxCell>
        <mxCell id="OauRLrOld_A3xyYv3yS7-4" value="Auth&lt;div&gt;(Clerk)&lt;/div&gt;" style="ellipse;whiteSpace=wrap;html=1;" vertex="1" parent="1">
          <mxGeometry x="270" y="180" width="120" height="80" as="geometry" />
        </mxCell>
        <mxCell id="OauRLrOld_A3xyYv3yS7-5" value="Vector Database&lt;div&gt;(Pinecone)&lt;/div&gt;" style="ellipse;whiteSpace=wrap;html=1;" vertex="1" parent="1">
          <mxGeometry x="500" y="500" width="120" height="80" as="geometry" />
        </mxCell>
        <mxCell id="OauRLrOld_A3xyYv3yS7-6" value="Storage&lt;div&gt;&lt;span style=&quot;background-color: transparent; color: light-dark(rgb(0, 0, 0), rgb(255, 255, 255));&quot;&gt;(aws s3)&lt;/span&gt;&lt;/div&gt;" style="ellipse;whiteSpace=wrap;html=1;" vertex="1" parent="1">
          <mxGeometry x="354" y="505" width="120" height="80" as="geometry" />
        </mxCell>
        <mxCell id="OauRLrOld_A3xyYv3yS7-7" value="OpenAI API" style="ellipse;whiteSpace=wrap;html=1;" vertex="1" parent="1">
          <mxGeometry x="690" y="340" width="120" height="80" as="geometry" />
        </mxCell>
        <mxCell id="OauRLrOld_A3xyYv3yS7-8" value="" style="endArrow=classic;html=1;rounded=0;exitX=1;exitY=0.5;exitDx=0;exitDy=0;entryX=0;entryY=0.5;entryDx=0;entryDy=0;" edge="1" parent="1" source="OauRLrOld_A3xyYv3yS7-3" target="OauRLrOld_A3xyYv3yS7-2">
          <mxGeometry width="50" height="50" relative="1" as="geometry">
            <mxPoint x="190" y="480" as="sourcePoint" />
            <mxPoint x="240" y="430" as="targetPoint" />
          </mxGeometry>
        </mxCell>
        <mxCell id="OauRLrOld_A3xyYv3yS7-9" value="" style="endArrow=classic;html=1;rounded=0;exitX=1;exitY=0.5;exitDx=0;exitDy=0;entryX=0.5;entryY=1;entryDx=0;entryDy=0;" edge="1" parent="1" source="OauRLrOld_A3xyYv3yS7-3" target="OauRLrOld_A3xyYv3yS7-4">
          <mxGeometry width="50" height="50" relative="1" as="geometry">
            <mxPoint x="200" y="390" as="sourcePoint" />
            <mxPoint x="280" y="390" as="targetPoint" />
          </mxGeometry>
        </mxCell>
        <mxCell id="OauRLrOld_A3xyYv3yS7-10" value="" style="endArrow=classic;html=1;rounded=0;exitX=1;exitY=0.5;exitDx=0;exitDy=0;entryX=0;entryY=0.5;entryDx=0;entryDy=0;" edge="1" parent="1" source="OauRLrOld_A3xyYv3yS7-2" target="OauRLrOld_A3xyYv3yS7-1">
          <mxGeometry width="50" height="50" relative="1" as="geometry">
            <mxPoint x="200" y="390" as="sourcePoint" />
            <mxPoint x="280" y="390" as="targetPoint" />
          </mxGeometry>
        </mxCell>
        <mxCell id="OauRLrOld_A3xyYv3yS7-11" value="" style="endArrow=classic;html=1;rounded=0;exitX=0;exitY=0.5;exitDx=0;exitDy=0;entryX=0.5;entryY=1;entryDx=0;entryDy=0;" edge="1" parent="1" source="OauRLrOld_A3xyYv3yS7-1" target="OauRLrOld_A3xyYv3yS7-4">
          <mxGeometry width="50" height="50" relative="1" as="geometry">
            <mxPoint x="200" y="390" as="sourcePoint" />
            <mxPoint x="280" y="230" as="targetPoint" />
          </mxGeometry>
        </mxCell>
        <mxCell id="OauRLrOld_A3xyYv3yS7-12" value="" style="endArrow=classic;html=1;rounded=0;exitX=1;exitY=0.5;exitDx=0;exitDy=0;entryX=0;entryY=0.5;entryDx=0;entryDy=0;" edge="1" parent="1" source="OauRLrOld_A3xyYv3yS7-1" target="OauRLrOld_A3xyYv3yS7-7">
          <mxGeometry width="50" height="50" relative="1" as="geometry">
            <mxPoint x="400" y="390" as="sourcePoint" />
            <mxPoint x="500" y="390" as="targetPoint" />
          </mxGeometry>
        </mxCell>
        <mxCell id="OauRLrOld_A3xyYv3yS7-13" value="" style="endArrow=classic;html=1;rounded=0;exitX=0.5;exitY=1;exitDx=0;exitDy=0;entryX=0.5;entryY=0;entryDx=0;entryDy=0;" edge="1" parent="1" source="OauRLrOld_A3xyYv3yS7-1" target="OauRLrOld_A3xyYv3yS7-6">
          <mxGeometry width="50" height="50" relative="1" as="geometry">
            <mxPoint x="390" y="490" as="sourcePoint" />
            <mxPoint x="440" y="440" as="targetPoint" />
          </mxGeometry>
        </mxCell>
        <mxCell id="OauRLrOld_A3xyYv3yS7-14" value="" style="endArrow=classic;html=1;rounded=0;" edge="1" parent="1" target="OauRLrOld_A3xyYv3yS7-5">
          <mxGeometry width="50" height="50" relative="1" as="geometry">
            <mxPoint x="550" y="420" as="sourcePoint" />
            <mxPoint x="424" y="515" as="targetPoint" />
          </mxGeometry>
        </mxCell>
        <mxCell id="OauRLrOld_A3xyYv3yS7-15" value="BackEnd&lt;div&gt;(FastAPI)&lt;/div&gt;" style="ellipse;whiteSpace=wrap;html=1;" vertex="1" parent="1">
          <mxGeometry x="466" y="1459" width="120" height="80" as="geometry" />
        </mxCell>
        <mxCell id="OauRLrOld_A3xyYv3yS7-16" value="FrontEnd&lt;div&gt;(NextJs)&lt;/div&gt;" style="ellipse;whiteSpace=wrap;html=1;" vertex="1" parent="1">
          <mxGeometry x="248" y="1459" width="120" height="80" as="geometry" />
        </mxCell>
        <mxCell id="OauRLrOld_A3xyYv3yS7-17" value="User" style="ellipse;whiteSpace=wrap;html=1;" vertex="1" parent="1">
          <mxGeometry x="48" y="1459" width="120" height="80" as="geometry" />
        </mxCell>
        <mxCell id="OauRLrOld_A3xyYv3yS7-18" value="Auth&lt;div&gt;(Clerk)&lt;/div&gt;" style="ellipse;whiteSpace=wrap;html=1;" vertex="1" parent="1">
          <mxGeometry x="248" y="1299" width="120" height="80" as="geometry" />
        </mxCell>
        <mxCell id="OauRLrOld_A3xyYv3yS7-19" value="Vector Database&lt;div&gt;(Pinecone)&lt;/div&gt;" style="ellipse;whiteSpace=wrap;html=1;" vertex="1" parent="1">
          <mxGeometry x="478" y="1619" width="120" height="80" as="geometry" />
        </mxCell>
        <mxCell id="OauRLrOld_A3xyYv3yS7-20" value="Storage&lt;div&gt;&lt;span style=&quot;background-color: transparent; color: light-dark(rgb(0, 0, 0), rgb(255, 255, 255));&quot;&gt;(aws s3)&lt;/span&gt;&lt;/div&gt;" style="ellipse;whiteSpace=wrap;html=1;" vertex="1" parent="1">
          <mxGeometry x="332" y="1624" width="120" height="80" as="geometry" />
        </mxCell>
        <mxCell id="OauRLrOld_A3xyYv3yS7-21" value="OpenAI API" style="ellipse;whiteSpace=wrap;html=1;" vertex="1" parent="1">
          <mxGeometry x="668" y="1459" width="120" height="80" as="geometry" />
        </mxCell>
        <mxCell id="OauRLrOld_A3xyYv3yS7-22" value="" style="endArrow=classic;html=1;rounded=0;exitX=1;exitY=0.5;exitDx=0;exitDy=0;entryX=0;entryY=0.5;entryDx=0;entryDy=0;" edge="1" parent="1" source="OauRLrOld_A3xyYv3yS7-17" target="OauRLrOld_A3xyYv3yS7-16">
          <mxGeometry width="50" height="50" relative="1" as="geometry">
            <mxPoint x="168" y="1599" as="sourcePoint" />
            <mxPoint x="218" y="1549" as="targetPoint" />
          </mxGeometry>
        </mxCell>
        <mxCell id="OauRLrOld_A3xyYv3yS7-23" value="" style="endArrow=classic;html=1;rounded=0;exitX=1;exitY=0.5;exitDx=0;exitDy=0;entryX=0.5;entryY=1;entryDx=0;entryDy=0;" edge="1" parent="1" source="OauRLrOld_A3xyYv3yS7-17" target="OauRLrOld_A3xyYv3yS7-18">
          <mxGeometry width="50" height="50" relative="1" as="geometry">
            <mxPoint x="178" y="1509" as="sourcePoint" />
            <mxPoint x="258" y="1509" as="targetPoint" />
          </mxGeometry>
        </mxCell>
        <mxCell id="OauRLrOld_A3xyYv3yS7-24" value="" style="endArrow=classic;html=1;rounded=0;exitX=1;exitY=0.5;exitDx=0;exitDy=0;entryX=0;entryY=0.5;entryDx=0;entryDy=0;" edge="1" parent="1" source="OauRLrOld_A3xyYv3yS7-16" target="OauRLrOld_A3xyYv3yS7-15">
          <mxGeometry width="50" height="50" relative="1" as="geometry">
            <mxPoint x="178" y="1509" as="sourcePoint" />
            <mxPoint x="258" y="1509" as="targetPoint" />
          </mxGeometry>
        </mxCell>
        <mxCell id="OauRLrOld_A3xyYv3yS7-25" value="" style="endArrow=classic;html=1;rounded=0;exitX=0;exitY=0.5;exitDx=0;exitDy=0;entryX=0.5;entryY=1;entryDx=0;entryDy=0;" edge="1" parent="1" source="OauRLrOld_A3xyYv3yS7-15" target="OauRLrOld_A3xyYv3yS7-18">
          <mxGeometry width="50" height="50" relative="1" as="geometry">
            <mxPoint x="178" y="1509" as="sourcePoint" />
            <mxPoint x="258" y="1349" as="targetPoint" />
          </mxGeometry>
        </mxCell>
        <mxCell id="OauRLrOld_A3xyYv3yS7-26" value="" style="endArrow=classic;html=1;rounded=0;exitX=1;exitY=0.5;exitDx=0;exitDy=0;entryX=0;entryY=0.5;entryDx=0;entryDy=0;" edge="1" parent="1" source="OauRLrOld_A3xyYv3yS7-15" target="OauRLrOld_A3xyYv3yS7-21">
          <mxGeometry width="50" height="50" relative="1" as="geometry">
            <mxPoint x="378" y="1509" as="sourcePoint" />
            <mxPoint x="478" y="1509" as="targetPoint" />
          </mxGeometry>
        </mxCell>
        <mxCell id="OauRLrOld_A3xyYv3yS7-27" value="" style="endArrow=classic;html=1;rounded=0;exitX=0.5;exitY=1;exitDx=0;exitDy=0;entryX=0.5;entryY=0;entryDx=0;entryDy=0;" edge="1" parent="1" source="OauRLrOld_A3xyYv3yS7-15" target="OauRLrOld_A3xyYv3yS7-20">
          <mxGeometry width="50" height="50" relative="1" as="geometry">
            <mxPoint x="368" y="1609" as="sourcePoint" />
            <mxPoint x="418" y="1559" as="targetPoint" />
          </mxGeometry>
        </mxCell>
        <mxCell id="OauRLrOld_A3xyYv3yS7-28" value="" style="endArrow=classic;html=1;rounded=0;" edge="1" parent="1" target="OauRLrOld_A3xyYv3yS7-19">
          <mxGeometry width="50" height="50" relative="1" as="geometry">
            <mxPoint x="528" y="1539" as="sourcePoint" />
            <mxPoint x="402" y="1634" as="targetPoint" />
          </mxGeometry>
        </mxCell>
        <mxCell id="OauRLrOld_A3xyYv3yS7-29" value="" style="swimlane;startSize=0;" vertex="1" parent="1">
          <mxGeometry x="886" y="1898" width="200" height="200" as="geometry" />
        </mxCell>
        <mxCell id="OauRLrOld_A3xyYv3yS7-30" value="OpenAI API" style="ellipse;whiteSpace=wrap;html=1;" vertex="1" parent="OauRLrOld_A3xyYv3yS7-29">
          <mxGeometry x="40" y="51" width="120" height="80" as="geometry" />
        </mxCell>
        <mxCell id="OauRLrOld_A3xyYv3yS7-31" value="" style="swimlane;startSize=0;" vertex="1" parent="1">
          <mxGeometry x="466" y="1841" width="314" height="305" as="geometry" />
        </mxCell>
        <mxCell id="OauRLrOld_A3xyYv3yS7-33" value="ChromaDB" style="ellipse;whiteSpace=wrap;html=1;" vertex="1" parent="OauRLrOld_A3xyYv3yS7-31">
          <mxGeometry x="149" y="177" width="120" height="80" as="geometry" />
        </mxCell>
        <mxCell id="OauRLrOld_A3xyYv3yS7-34" value="BackEnd&lt;div&gt;(FastAPI)&lt;/div&gt;" style="ellipse;whiteSpace=wrap;html=1;" vertex="1" parent="OauRLrOld_A3xyYv3yS7-31">
          <mxGeometry x="72" y="32" width="120" height="80" as="geometry" />
        </mxCell>
        <mxCell id="OauRLrOld_A3xyYv3yS7-35" value="FrontEnd&lt;div&gt;(NextJs)&lt;/div&gt;" style="ellipse;whiteSpace=wrap;html=1;" vertex="1" parent="1">
          <mxGeometry x="288" y="1943" width="120" height="80" as="geometry" />
        </mxCell>
        <mxCell id="OauRLrOld_A3xyYv3yS7-36" value="Storage&lt;div&gt;&lt;span style=&quot;background-color: transparent; color: light-dark(rgb(0, 0, 0), rgb(255, 255, 255));&quot;&gt;(aws s3)&lt;/span&gt;&lt;/div&gt;" style="ellipse;whiteSpace=wrap;html=1;" vertex="1" parent="1">
          <mxGeometry x="153" y="1793" width="120" height="80" as="geometry" />
        </mxCell>
      </root>
    </mxGraphModel>
  </diagram>
</mxfile>
